solid Varios_SBOX_2
facet normal 0.0 0.0 -1.0
outer loop
vertex 137.04876920444656 163.4965654685531 0.0
vertex 136.9295095964583 142.59069881069428 0.0
vertex 136.9295095964583 162.5906988106943 0.0
endloop
endfacet
facet normal 0.0 0.0 -1.0
outer loop
vertex 136.9295095964583 142.59069881069428 0.0
vertex 137.04876920444656 163.4965654685531 0.0
vertex 137.04876920444656 141.68483215283544 0.0
endloop
endfacet
facet normal 0.0 0.0 -1.0
outer loop
vertex 137.04876920444656 141.68483215283544 0.0
vertex 137.04876920444656 163.4965654685531 0.0
vertex 137.39842068321278 164.34069881069425 0.0
endloop
endfacet
facet normal 0.0 0.0 -1.0
outer loop
vertex 137.04876920444656 141.68483215283544 0.0
vertex 137.39842068321278 164.34069881069425 0.0
vertex 137.39842068321278 140.84069881069425 0.0
endloop
endfacet
facet normal 0.0 0.0 -1.0
outer loop
vertex 137.39842068321278 140.84069881069425 0.0
vertex 137.39842068321278 164.34069881069425 0.0
vertex 137.9546358623054 165.06557254484719 0.0
endloop
endfacet
facet normal 0.0 0.0 -1.0
outer loop
vertex 137.39842068321278 140.84069881069425 0.0
vertex 137.9546358623054 165.06557254484719 0.0
vertex 137.9546358623054 140.1158250765413 0.0
endloop
endfacet
facet normal 0.0 0.0 -1.0
outer loop
vertex 137.9546358623054 140.1158250765413 0.0
vertex 137.9546358623054 165.06557254484719 0.0
vertex 138.67950959645833 165.62178772393983 0.0
endloop
endfacet
facet normal 0.0 0.0 -1.0
outer loop
vertex 137.9546358623054 140.1158250765413 0.0
vertex 138.67950959645833 165.62178772393983 0.0
vertex 138.67950959645833 139.55960989744872 0.0
endloop
endfacet
facet normal 0.0 0.0 -1.0
outer loop
vertex 138.67950959645833 139.55960989744872 0.0
vertex 138.67950959645833 165.62178772393983 0.0
vertex 139.5236429385995 165.97143920270605 0.0
endloop
endfacet
facet normal 0.0 0.0 -1.0
outer loop
vertex 138.67950959645833 139.55960989744872 0.0
vertex 139.5236429385995 165.97143920270605 0.0
vertex 139.5236429385995 139.2099584186825 0.0
endloop
endfacet
facet normal 0.0 0.0 -1.0
outer loop
vertex 139.5236429385995 139.2099584186825 0.0
vertex 139.5236429385995 165.97143920270605 0.0
vertex 139.58598131689345 162.5906988106943 0.0
endloop
endfacet
facet normal 0.0 0.0 -1.0
outer loop
vertex 139.58598131689345 162.5906988106943 0.0
vertex 139.5236429385995 165.97143920270605 0.0
vertex 139.61472384602143 162.8090199945283 0.0
endloop
endfacet
facet normal 0.0 0.0 -1.0
outer loop
vertex 139.61472384602143 162.8090199945283 0.0
vertex 139.5236429385995 165.97143920270605 0.0
vertex 140.42950959645833 166.0906988106943 0.0
endloop
endfacet
facet normal 0.0 0.0 -1.0
outer loop
vertex 139.61472384602143 162.8090199945283 0.0
vertex 140.42950959645833 166.0906988106943 0.0
vertex 139.69899267754454 163.0124629504767 0.0
endloop
endfacet
facet normal 0.0 0.0 -1.0
outer loop
vertex 139.69899267754454 163.0124629504767 0.0
vertex 140.42950959645833 166.0906988106943 0.0
vertex 139.8330450298554 163.18716337729722 0.0
endloop
endfacet
facet normal 0.0 0.0 -1.0
outer loop
vertex 139.8330450298554 163.18716337729722 0.0
vertex 140.42950959645833 166.0906988106943 0.0
vertex 140.00774545667588 163.32121572960799 0.0
endloop
endfacet
facet normal 0.0 0.0 -1.0
outer loop
vertex 140.00774545667588 163.32121572960799 0.0
vertex 140.42950959645833 166.0906988106943 0.0
vertex 140.21118841262435 163.40548456113123 0.0
endloop
endfacet
facet normal 0.0 0.0 -1.0
outer loop
vertex 140.21118841262435 163.40548456113123 0.0
vertex 140.42950959645833 166.0906988106943 0.0
vertex 140.42950959645833 163.43422709025918 0.0
endloop
endfacet
facet normal 0.0 0.0 -1.0
outer loop
vertex 140.42950959645833 163.43422709025918 0.0
vertex 140.42950959645833 166.0906988106943 0.0
vertex 141.33537625431714 165.97143920270605 0.0
endloop
endfacet
facet normal 0.0 0.0 -1.0
outer loop
vertex 140.42950959645833 163.43422709025918 0.0
vertex 141.33537625431714 165.97143920270605 0.0
vertex 140.64783078029228 163.40548456113123 0.0
endloop
endfacet
facet normal 0.0 0.0 -1.0
outer loop
vertex 140.64783078029228 163.40548456113123 0.0
vertex 141.33537625431714 165.97143920270605 0.0
vertex 140.85127373624078 163.32121572960799 0.0
endloop
endfacet
facet normal 0.0 0.0 -1.0
outer loop
vertex 140.85127373624078 163.32121572960799 0.0
vertex 141.33537625431714 165.97143920270605 0.0
vertex 141.02597416306125 163.18716337729722 0.0
endloop
endfacet
facet normal 0.0 0.0 -1.0
outer loop
vertex 141.02597416306125 163.18716337729722 0.0
vertex 141.33537625431714 165.97143920270605 0.0
vertex 141.16002651537212 163.0124629504767 0.0
endloop
endfacet
facet normal 0.0 0.0 -1.0
outer loop
vertex 141.16002651537212 163.0124629504767 0.0
vertex 141.33537625431714 165.97143920270605 0.0
vertex 141.24429534689523 162.8090199945283 0.0
endloop
endfacet
facet normal 0.0 0.0 -1.0
outer loop
vertex 141.24429534689523 162.8090199945283 0.0
vertex 141.33537625431714 165.97143920270605 0.0
vertex 141.2730378760232 162.5906988106943 0.0
endloop
endfacet
facet normal 0.0 0.0 -1.0
outer loop
vertex 141.2730378760232 162.5906988106943 0.0
vertex 141.33537625431714 165.97143920270605 0.0
vertex 141.2730378760232 142.59069881069422 0.0
endloop
endfacet
facet normal 0.0 0.0 -1.0
outer loop
vertex 139.5236429385995 139.2099584186825 0.0
vertex 139.61472384602143 142.37237762686024 0.0
vertex 140.42950959645833 139.09069881069425 0.0
endloop
endfacet
facet normal 0.0 0.0 -1.0
outer loop
vertex 139.61472384602143 142.37237762686024 0.0
vertex 139.5236429385995 139.2099584186825 0.0
vertex 139.58598131689345 142.59069881069428 0.0
endloop
endfacet
facet normal 0.0 0.0 -1.0
outer loop
vertex 139.58598131689345 142.59069881069428 0.0
vertex 139.5236429385995 139.2099584186825 0.0
vertex 139.58598131689345 162.5906988106943 0.0
endloop
endfacet
facet normal 0.0 0.0 -1.0
outer loop
vertex 140.42950959645833 139.09069881069425 0.0
vertex 139.61472384602143 142.37237762686024 0.0
vertex 139.69899267754454 142.16893467091185 0.0
endloop
endfacet
facet normal 0.0 0.0 -1.0
outer loop
vertex 140.42950959645833 139.09069881069425 0.0
vertex 139.69899267754454 142.16893467091185 0.0
vertex 139.8330450298554 141.9942342440913 0.0
endloop
endfacet
facet normal 0.0 0.0 -1.0
outer loop
vertex 140.42950959645833 139.09069881069425 0.0
vertex 139.8330450298554 141.9942342440913 0.0
vertex 140.00774545667588 141.8601818917805 0.0
endloop
endfacet
facet normal 0.0 0.0 -1.0
outer loop
vertex 140.42950959645833 139.09069881069425 0.0
vertex 140.00774545667588 141.8601818917805 0.0
vertex 140.21118841262435 141.77591306025732 0.0
endloop
endfacet
facet normal 0.0 0.0 -1.0
outer loop
vertex 140.42950959645833 139.09069881069425 0.0
vertex 140.21118841262435 141.77591306025732 0.0
vertex 140.42950959645833 141.74717053112937 0.0
endloop
endfacet
facet normal 0.0 0.0 -1.0
outer loop
vertex 140.42950959645833 139.09069881069425 0.0
vertex 140.42950959645833 141.74717053112937 0.0
vertex 140.64783078029228 141.77591306025732 0.0
endloop
endfacet
facet normal 0.0 0.0 -1.0
outer loop
vertex 140.42950959645833 139.09069881069425 0.0
vertex 140.64783078029228 141.77591306025732 0.0
vertex 146.92950959645833 139.09069881069425 0.0
endloop
endfacet
facet normal 0.0 0.0 -1.0
outer loop
vertex 146.92950959645833 139.09069881069425 0.0
vertex 140.64783078029228 141.77591306025732 0.0
vertex 140.85127373624078 141.8601818917805 0.0
endloop
endfacet
facet normal 0.0 0.0 -1.0
outer loop
vertex 146.92950959645833 139.09069881069425 0.0
vertex 140.85127373624078 141.8601818917805 0.0
vertex 141.02597416306125 141.9942342440913 0.0
endloop
endfacet
facet normal 0.0 0.0 -1.0
outer loop
vertex 146.92950959645833 139.09069881069425 0.0
vertex 141.02597416306125 141.9942342440913 0.0
vertex 141.16002651537212 142.16893467091185 0.0
endloop
endfacet
facet normal 0.0 0.0 -1.0
outer loop
vertex 146.92950959645833 139.09069881069425 0.0
vertex 141.16002651537212 142.16893467091185 0.0
vertex 141.24429534689523 142.37237762686024 0.0
endloop
endfacet
facet normal 0.0 0.0 -1.0
outer loop
vertex 146.92950959645833 139.09069881069425 0.0
vertex 141.24429534689523 142.37237762686024 0.0
vertex 141.2730378760232 142.59069881069422 0.0
endloop
endfacet
facet normal 0.0 0.0 -1.0
outer loop
vertex 146.92950959645833 139.09069881069425 0.0
vertex 141.2730378760232 142.59069881069422 0.0
vertex 141.33537625431714 165.97143920270605 0.0
endloop
endfacet
facet normal 0.0 0.0 -1.0
outer loop
vertex 146.92950959645833 139.09069881069425 0.0
vertex 141.33537625431714 165.97143920270605 0.0
vertex 142.17950959645833 165.62178772393983 0.0
endloop
endfacet
facet normal 0.0 0.0 -1.0
outer loop
vertex 146.92950959645833 139.09069881069425 0.0
vertex 142.17950959645833 165.62178772393983 0.0
vertex 147.92950959645833 162.5906988106943 0.0
endloop
endfacet
facet normal 0.0 0.0 -1.0
outer loop
vertex 146.92950959645833 139.09069881069425 0.0
vertex 147.92950959645833 162.5906988106943 0.0
vertex 147.18832864156084 139.12477298440515 0.0
endloop
endfacet
facet normal 0.0 0.0 -1.0
outer loop
vertex 147.18832864156084 139.12477298440515 0.0
vertex 147.92950959645833 162.5906988106943 0.0
vertex 147.31219302882343 139.16681927818294 0.0
endloop
endfacet
facet normal 0.0 0.0 -1.0
outer loop
vertex 147.31219302882343 139.16681927818294 0.0
vertex 147.92950959645833 162.5906988106943 0.0
vertex 147.42950959645833 139.2246734069098 0.0
endloop
endfacet
facet normal 0.0 0.0 -1.0
outer loop
vertex 147.42950959645833 139.2246734069098 0.0
vertex 147.92950959645833 162.5906988106943 0.0
vertex 147.53827102546705 139.297345470403 0.0
endloop
endfacet
facet normal 0.0 0.0 -1.0
outer loop
vertex 147.53827102546705 139.297345470403 0.0
vertex 147.92950959645833 162.5906988106943 0.0
vertex 147.63661637764488 139.3835920295077 0.0
endloop
endfacet
facet normal 0.0 0.0 -1.0
outer loop
vertex 147.63661637764488 139.3835920295077 0.0
vertex 147.92950959645833 162.5906988106943 0.0
vertex 147.72286293674958 139.48193738168555 0.0
endloop
endfacet
facet normal 0.0 0.0 -1.0
outer loop
vertex 147.72286293674958 139.48193738168555 0.0
vertex 147.92950959645833 162.5906988106943 0.0
vertex 147.79553500024278 139.59069881069428 0.0
endloop
endfacet
facet normal 0.0 0.0 -1.0
outer loop
vertex 147.79553500024278 139.59069881069428 0.0
vertex 147.92950959645833 162.5906988106943 0.0
vertex 147.8533891289696 139.70801537832918 0.0
endloop
endfacet
facet normal 0.0 0.0 -1.0
outer loop
vertex 147.8533891289696 139.70801537832918 0.0
vertex 147.92950959645833 162.5906988106943 0.0
vertex 147.8954354227474 139.8318797655917 0.0
endloop
endfacet
facet normal 0.0 0.0 -1.0
outer loop
vertex 147.8954354227474 139.8318797655917 0.0
vertex 147.92950959645833 162.5906988106943 0.0
vertex 147.92950959645833 140.09069881069425 0.0
endloop
endfacet
facet normal 0.0 0.0 -1.0
outer loop
vertex 147.92950959645833 140.09069881069425 0.0
vertex 147.92950959645833 162.5906988106943 0.0
vertex 160.92950959645833 162.5906988106943 0.0
endloop
endfacet
facet normal 0.0 0.0 -1.0
outer loop
vertex 147.92950959645833 140.09069881069425 0.0
vertex 160.92950959645833 162.5906988106943 0.0
vertex 160.92950959645833 140.09069881069425 0.0
endloop
endfacet
facet normal 0.0 0.0 -1.0
outer loop
vertex 139.61472384602143 162.37237762686027 0.0
vertex 139.58598131689345 142.59069881069428 0.0
vertex 139.58598131689345 162.5906988106943 0.0
endloop
endfacet
facet normal 0.0 0.0 -1.0
outer loop
vertex 139.58598131689345 142.59069881069428 0.0
vertex 139.61472384602143 162.37237762686027 0.0
vertex 139.61472384602143 142.80901999452826 0.0
endloop
endfacet
facet normal 0.0 0.0 -1.0
outer loop
vertex 139.61472384602143 142.80901999452826 0.0
vertex 139.61472384602143 162.37237762686027 0.0
vertex 139.69899267754457 162.1689346709118 0.0
endloop
endfacet
facet normal 0.0 0.0 -1.0
outer loop
vertex 139.61472384602143 142.80901999452826 0.0
vertex 139.69899267754457 162.1689346709118 0.0
vertex 139.69899267754454 143.01246295047665 0.0
endloop
endfacet
facet normal 0.0 0.0 -1.0
outer loop
vertex 139.69899267754454 143.01246295047665 0.0
vertex 139.69899267754457 162.1689346709118 0.0
vertex 139.8330450298554 143.18716337729725 0.0
endloop
endfacet
facet normal 0.0 0.0 -1.0
outer loop
vertex 139.8330450298554 143.18716337729725 0.0
vertex 139.69899267754457 162.1689346709118 0.0
vertex 139.8330450298554 161.99423424409127 0.0
endloop
endfacet
facet normal 0.0 0.0 -1.0
outer loop
vertex 139.8330450298554 143.18716337729725 0.0
vertex 139.8330450298554 161.99423424409127 0.0
vertex 140.00774545667588 161.8601818917805 0.0
endloop
endfacet
facet normal 0.0 0.0 -1.0
outer loop
vertex 139.8330450298554 143.18716337729725 0.0
vertex 140.00774545667588 161.8601818917805 0.0
vertex 140.00774545667588 143.32121572960804 0.0
endloop
endfacet
facet normal 0.0 0.0 -1.0
outer loop
vertex 140.00774545667588 143.32121572960804 0.0
vertex 140.00774545667588 161.8601818917805 0.0
vertex 140.21118841262435 161.77591306025735 0.0
endloop
endfacet
facet normal 0.0 0.0 -1.0
outer loop
vertex 140.00774545667588 143.32121572960804 0.0
vertex 140.21118841262435 161.77591306025735 0.0
vertex 140.21118841262435 143.40548456113117 0.0
endloop
endfacet
facet normal 0.0 0.0 -1.0
outer loop
vertex 140.21118841262435 143.40548456113117 0.0
vertex 140.21118841262435 161.77591306025735 0.0
vertex 140.42950959645833 161.7471705311294 0.0
endloop
endfacet
facet normal 0.0 0.0 -1.0
outer loop
vertex 140.21118841262435 143.40548456113117 0.0
vertex 140.42950959645833 161.7471705311294 0.0
vertex 140.42950959645833 143.43422709025913 0.0
endloop
endfacet
facet normal 0.0 0.0 -1.0
outer loop
vertex 140.42950959645833 143.43422709025913 0.0
vertex 140.42950959645833 161.7471705311294 0.0
vertex 140.64783078029228 161.77591306025735 0.0
endloop
endfacet
facet normal 0.0 0.0 -1.0
outer loop
vertex 140.42950959645833 143.43422709025913 0.0
vertex 140.64783078029228 161.77591306025735 0.0
vertex 140.64783078029228 143.40548456113117 0.0
endloop
endfacet
facet normal 0.0 0.0 -1.0
outer loop
vertex 140.64783078029228 143.40548456113117 0.0
vertex 140.64783078029228 161.77591306025735 0.0
vertex 140.85127373624078 161.8601818917805 0.0
endloop
endfacet
facet normal 0.0 0.0 -1.0
outer loop
vertex 140.64783078029228 143.40548456113117 0.0
vertex 140.85127373624078 161.8601818917805 0.0
vertex 140.85127373624078 143.32121572960804 0.0
endloop
endfacet
facet normal 0.0 0.0 -1.0
outer loop
vertex 140.85127373624078 143.32121572960804 0.0
vertex 140.85127373624078 161.8601818917805 0.0
vertex 141.02597416306125 161.99423424409127 0.0
endloop
endfacet
facet normal 0.0 0.0 -1.0
outer loop
vertex 140.85127373624078 143.32121572960804 0.0
vertex 141.02597416306125 161.99423424409127 0.0
vertex 141.02597416306125 143.18716337729725 0.0
endloop
endfacet
facet normal 0.0 0.0 -1.0
outer loop
vertex 141.02597416306125 143.18716337729725 0.0
vertex 141.02597416306125 161.99423424409127 0.0
vertex 141.16002651537212 162.16893467091188 0.0
endloop
endfacet
facet normal 0.0 0.0 -1.0
outer loop
vertex 141.02597416306125 143.18716337729725 0.0
vertex 141.16002651537212 162.16893467091188 0.0
vertex 141.1600265153721 143.01246295047673 0.0
endloop
endfacet
facet normal 0.0 0.0 -1.0
outer loop
vertex 141.1600265153721 143.01246295047673 0.0
vertex 141.16002651537212 162.16893467091188 0.0
vertex 141.24429534689523 142.80901999452826 0.0
endloop
endfacet
facet normal 0.0 0.0 -1.0
outer loop
vertex 141.24429534689523 142.80901999452826 0.0
vertex 141.16002651537212 162.16893467091188 0.0
vertex 141.24429534689523 162.37237762686027 0.0
endloop
endfacet
facet normal 0.0 0.0 -1.0
outer loop
vertex 141.24429534689523 142.80901999452826 0.0
vertex 141.24429534689523 162.37237762686027 0.0
vertex 141.2730378760232 162.5906988106943 0.0
endloop
endfacet
facet normal 0.0 0.0 -1.0
outer loop
vertex 141.24429534689523 142.80901999452826 0.0
vertex 141.2730378760232 162.5906988106943 0.0
vertex 141.2730378760232 142.59069881069422 0.0
endloop
endfacet
facet normal 0.9914448613738086 -0.13052619222006637 0.0
outer loop
vertex 147.92950959645833 140.09069881069425 0.0
vertex 147.8954354227474 139.8318797655917 10.000000000000004
vertex 147.8954354227474 139.8318797655917 0.0
endloop
endfacet
facet normal 0.9914448613738086 -0.13052619222006637 0.0
outer loop
vertex 147.8954354227474 139.8318797655917 10.000000000000004
vertex 147.92950959645833 140.09069881069425 0.0
vertex 147.92950959645833 140.09069881069425 10.000000000000004
endloop
endfacet
facet normal 0.9914448613738086 -0.13052619222006637 0.0
outer loop
vertex 147.92950959645833 140.09069881069425 10.000000000000004
vertex 147.92950959645833 140.09069881069425 0.0
vertex 147.92950959645833 140.09069881069425 5.000000000000002
endloop
endfacet
facet normal 0.9469301294950815 -0.32143946530323275 0.0
outer loop
vertex 147.8954354227474 139.8318797655917 0.0
vertex 147.8533891289696 139.70801537832918 10.000000000000004
vertex 147.8533891289696 139.70801537832918 0.0
endloop
endfacet
facet normal 0.9469301294950815 -0.32143946530323275 0.0
outer loop
vertex 147.8533891289696 139.70801537832918 10.000000000000004
vertex 147.8954354227474 139.8318797655917 0.0
vertex 147.8954354227474 139.8318797655917 10.000000000000004
endloop
endfacet
facet normal 0.8968727415326858 -0.44228869021900674 0.0
outer loop
vertex 147.8533891289696 139.70801537832918 0.0
vertex 147.79553500024278 139.59069881069428 10.000000000000004
vertex 147.79553500024278 139.59069881069428 0.0
endloop
endfacet
facet normal 0.8968727415326858 -0.44228869021900674 0.0
outer loop
vertex 147.79553500024278 139.59069881069428 10.000000000000004
vertex 147.8533891289696 139.70801537832918 0.0
vertex 147.8533891289696 139.70801537832918 10.000000000000004
endloop
endfacet
facet normal 0.8314696123025586 -0.5555702330195823 0.0
outer loop
vertex 147.79553500024278 139.59069881069428 0.0
vertex 147.72286293674958 139.48193738168555 10.000000000000004
vertex 147.72286293674958 139.48193738168555 0.0
endloop
endfacet
facet normal 0.8314696123025586 -0.5555702330195823 0.0
outer loop
vertex 147.72286293674958 139.48193738168555 10.000000000000004
vertex 147.79553500024278 139.59069881069428 0.0
vertex 147.79553500024278 139.59069881069428 10.000000000000004
endloop
endfacet
facet normal 0.7518398074790689 -0.6593458150999645 0.0
outer loop
vertex 147.72286293674958 139.48193738168555 0.0
vertex 147.63661637764488 139.3835920295077 10.000000000000004
vertex 147.63661637764488 139.3835920295077 0.0
endloop
endfacet
facet normal 0.7518398074790689 -0.6593458150999645 0.0
outer loop
vertex 147.63661637764488 139.3835920295077 10.000000000000004
vertex 147.72286293674958 139.48193738168555 0.0
vertex 147.72286293674958 139.48193738168555 10.000000000000004
endloop
endfacet
facet normal 0.6593458151000501 -0.751839807478994 0.0
outer loop
vertex 147.63661637764488 139.3835920295077 10.000000000000004
vertex 147.53827102546705 139.297345470403 0.0
vertex 147.63661637764488 139.3835920295077 0.0
endloop
endfacet
facet normal 0.6593458151000501 -0.751839807478994 0.0
outer loop
vertex 147.53827102546705 139.297345470403 0.0
vertex 147.63661637764488 139.3835920295077 10.000000000000004
vertex 147.53827102546705 139.297345470403 10.000000000000004
endloop
endfacet
facet normal 0.5555702330195823 -0.8314696123025586 0.0
outer loop
vertex 147.53827102546705 139.297345470403 10.000000000000004
vertex 147.42950959645833 139.2246734069098 0.0
vertex 147.53827102546705 139.297345470403 0.0
endloop
endfacet
facet normal 0.5555702330195823 -0.8314696123025586 0.0
outer loop
vertex 147.42950959645833 139.2246734069098 0.0
vertex 147.53827102546705 139.297345470403 10.000000000000004
vertex 147.42950959645833 139.2246734069098 10.000000000000004
endloop
endfacet
facet normal 0.44228869021914546 -0.8968727415326173 0.0
outer loop
vertex 147.42950959645833 139.2246734069098 10.000000000000004
vertex 147.31219302882343 139.16681927818294 0.0
vertex 147.42950959645833 139.2246734069098 0.0
endloop
endfacet
facet normal 0.44228869021914546 -0.8968727415326173 0.0
outer loop
vertex 147.31219302882343 139.16681927818294 0.0
vertex 147.42950959645833 139.2246734069098 10.000000000000004
vertex 147.31219302882343 139.16681927818294 10.000000000000004
endloop
endfacet
facet normal 0.3214394653031278 -0.9469301294951172 0.0
outer loop
vertex 147.31219302882343 139.16681927818294 10.000000000000004
vertex 147.18832864156084 139.12477298440515 0.0
vertex 147.31219302882343 139.16681927818294 0.0
endloop
endfacet
facet normal 0.3214394653031278 -0.9469301294951172 0.0
outer loop
vertex 147.18832864156084 139.12477298440515 0.0
vertex 147.31219302882343 139.16681927818294 10.000000000000004
vertex 147.18832864156084 139.12477298440515 10.000000000000004
endloop
endfacet
facet normal 0.13052619221999262 -0.9914448613738182 0.0
outer loop
vertex 147.18832864156084 139.12477298440515 10.000000000000004
vertex 146.92950959645833 139.09069881069425 0.0
vertex 147.18832864156084 139.12477298440515 0.0
endloop
endfacet
facet normal 0.13052619221999262 -0.9914448613738182 0.0
outer loop
vertex 146.92950959645833 139.09069881069425 0.0
vertex 147.18832864156084 139.12477298440515 10.000000000000004
vertex 146.92950959645833 139.09069881069425 10.000000000000004
endloop
endfacet
facet normal -0.0 -1.0 -0.0
outer loop
vertex 146.92950959645833 139.09069881069425 10.000000000000004
vertex 140.42950959645833 139.09069881069425 0.0
vertex 146.92950959645833 139.09069881069425 0.0
endloop
endfacet
facet normal -0.0 -1.0 -0.0
outer loop
vertex 140.42950959645833 139.09069881069425 0.0
vertex 146.92950959645833 139.09069881069425 10.000000000000004
vertex 140.42950959645833 139.09069881069425 10.000000000000004
endloop
endfacet
facet normal -0.13052619222003636 -0.9914448613738124 -0.0
outer loop
vertex 140.42950959645833 139.09069881069425 10.000000000000004
vertex 139.5236429385995 139.2099584186825 0.0
vertex 140.42950959645833 139.09069881069425 0.0
endloop
endfacet
facet normal -0.25881904510252446 -0.9659258262890673 0.0
outer loop
vertex 139.5236429385995 139.2099584186825 0.0
vertex 140.42950959645833 139.09069881069425 10.000000000000004
vertex 139.5236429385995 139.2099584186825 10.000000000000004
endloop
endfacet
facet normal -0.25881904510252446 -0.9659258262890673 0.0
outer loop
vertex 139.5236429385995 139.2099584186825 10.000000000000004
vertex 138.67950959645833 139.55960989744872 0.0
vertex 139.5236429385995 139.2099584186825 0.0
endloop
endfacet
facet normal -0.5000000000000016 -0.8660254037844379 0.0
outer loop
vertex 138.67950959645833 139.55960989744872 0.0
vertex 139.5236429385995 139.2099584186825 10.000000000000004
vertex 138.67950959645833 139.55960989744872 10.000000000000004
endloop
endfacet
facet normal -0.5000000000000016 -0.8660254037844379 0.0
outer loop
vertex 138.67950959645833 139.55960989744872 10.000000000000004
vertex 137.9546358623054 140.1158250765413 0.0
vertex 138.67950959645833 139.55960989744872 0.0
endloop
endfacet
facet normal -0.7071067811865425 -0.7071067811865527 0.0
outer loop
vertex 137.9546358623054 140.1158250765413 0.0
vertex 138.67950959645833 139.55960989744872 10.000000000000004
vertex 137.9546358623054 140.1158250765413 10.000000000000004
endloop
endfacet
facet normal -0.86602540378444 -0.4999999999999977 0.0
outer loop
vertex 137.39842068321278 140.84069881069425 10.000000000000004
vertex 137.9546358623054 140.1158250765413 0.0
vertex 137.9546358623054 140.1158250765413 10.000000000000004
endloop
endfacet
facet normal -0.7071067811865425 -0.7071067811865527 0.0
outer loop
vertex 137.9546358623054 140.1158250765413 0.0
vertex 137.39842068321278 140.84069881069425 10.000000000000004
vertex 137.39842068321278 140.84069881069425 0.0
endloop
endfacet
facet normal -0.9659258262890689 -0.25881904510251935 0.0
outer loop
vertex 137.04876920444656 141.68483215283544 10.000000000000004
vertex 137.39842068321278 140.84069881069425 0.0
vertex 137.39842068321278 140.84069881069425 10.000000000000004
endloop
endfacet
facet normal -0.86602540378444 -0.4999999999999977 0.0
outer loop
vertex 137.39842068321278 140.84069881069425 0.0
vertex 137.04876920444656 141.68483215283544 10.000000000000004
vertex 137.04876920444656 141.68483215283544 0.0
endloop
endfacet
facet normal -0.9914448613738108 -0.13052619222004852 -0.0
outer loop
vertex 136.9295095964583 142.59069881069428 10.000000000000004
vertex 137.04876920444656 141.68483215283544 0.0
vertex 137.04876920444656 141.68483215283544 10.000000000000004
endloop
endfacet
facet normal -0.9659258262890689 -0.25881904510251935 0.0
outer loop
vertex 137.04876920444656 141.68483215283544 0.0
vertex 136.9295095964583 142.59069881069428 10.000000000000004
vertex 136.9295095964583 142.59069881069428 0.0
endloop
endfacet
facet normal -1.0 0.0 0.0
outer loop
vertex 136.9295095964583 162.5906988106943 10.000000000000004
vertex 136.9295095964583 142.59069881069428 0.0
vertex 136.9295095964583 142.59069881069428 10.000000000000004
endloop
endfacet
facet normal -1.0 0.0 0.0
outer loop
vertex 136.9295095964583 142.59069881069428 0.0
vertex 136.9295095964583 162.5906988106943 10.000000000000004
vertex 136.9295095964583 162.5906988106943 0.0
endloop
endfacet
facet normal -0.9659258262890689 0.25881904510251935 0.0
outer loop
vertex 137.04876920444656 163.4965654685531 10.000000000000004
vertex 136.9295095964583 162.5906988106943 0.0
vertex 136.9295095964583 162.5906988106943 10.000000000000004
endloop
endfacet
facet normal -0.9914448613738108 0.13052619222004852 0.0
outer loop
vertex 136.9295095964583 162.5906988106943 0.0
vertex 137.04876920444656 163.4965654685531 10.000000000000004
vertex 137.04876920444656 163.4965654685531 0.0
endloop
endfacet
facet normal -0.86602540378444 0.4999999999999977 0.0
outer loop
vertex 137.39842068321278 164.34069881069425 10.000000000000004
vertex 137.04876920444656 163.4965654685531 0.0
vertex 137.04876920444656 163.4965654685531 10.000000000000004
endloop
endfacet
facet normal -0.9659258262890689 0.25881904510251935 0.0
outer loop
vertex 137.04876920444656 163.4965654685531 0.0
vertex 137.39842068321278 164.34069881069425 10.000000000000004
vertex 137.39842068321278 164.34069881069425 0.0
endloop
endfacet
facet normal -0.7071067811865425 0.7071067811865527 0.0
outer loop
vertex 137.9546358623054 165.06557254484719 10.000000000000004
vertex 137.39842068321278 164.34069881069425 0.0
vertex 137.39842068321278 164.34069881069425 10.000000000000004
endloop
endfacet
facet normal -0.86602540378444 0.4999999999999977 0.0
outer loop
vertex 137.39842068321278 164.34069881069425 0.0
vertex 137.9546358623054 165.06557254484719 10.000000000000004
vertex 137.9546358623054 165.06557254484719 0.0
endloop
endfacet
facet normal -0.7071067811865425 0.7071067811865527 0.0
outer loop
vertex 137.9546358623054 165.06557254484719 10.000000000000004
vertex 138.67950959645833 165.62178772393983 0.0
vertex 137.9546358623054 165.06557254484719 0.0
endloop
endfacet
facet normal -0.5000000000000016 0.8660254037844379 0.0
outer loop
vertex 138.67950959645833 165.62178772393983 0.0
vertex 137.9546358623054 165.06557254484719 10.000000000000004
vertex 138.67950959645833 165.62178772393983 10.000000000000004
endloop
endfacet
facet normal -0.5000000000000016 0.8660254037844379 0.0
outer loop
vertex 138.67950959645833 165.62178772393983 10.000000000000004
vertex 139.5236429385995 165.97143920270605 0.0
vertex 138.67950959645833 165.62178772393983 0.0
endloop
endfacet
facet normal -0.25881904510252446 0.9659258262890673 0.0
outer loop
vertex 139.5236429385995 165.97143920270605 0.0
vertex 138.67950959645833 165.62178772393983 10.000000000000004
vertex 139.5236429385995 165.97143920270605 10.000000000000004
endloop
endfacet
facet normal -0.25881904510252446 0.9659258262890673 0.0
outer loop
vertex 139.5236429385995 165.97143920270605 10.000000000000004
vertex 140.42950959645833 166.0906988106943 0.0
vertex 139.5236429385995 165.97143920270605 0.0
endloop
endfacet
facet normal 0.0 1.0 0.0
outer loop
vertex 140.42950959645833 166.0906988106943 0.0
vertex 139.5236429385995 165.97143920270605 10.000000000000004
vertex 140.42950959645833 166.0906988106943 10.000000000000004
endloop
endfacet
facet normal 0.0 1.0 0.0
outer loop
vertex 140.42950959645833 166.0906988106943 10.000000000000004
vertex 141.33537625431714 165.97143920270605 0.0
vertex 140.42950959645833 166.0906988106943 0.0
endloop
endfacet
facet normal 0.25881904510252446 0.9659258262890673 0.0
outer loop
vertex 141.33537625431714 165.97143920270605 0.0
vertex 140.42950959645833 166.0906988106943 10.000000000000004
vertex 141.33537625431714 165.97143920270605 10.000000000000004
endloop
endfacet
facet normal 0.25881904510252446 0.9659258262890673 0.0
outer loop
vertex 141.33537625431714 165.97143920270605 10.000000000000004
vertex 142.17950959645833 165.62178772393983 0.0
vertex 141.33537625431714 165.97143920270605 0.0
endloop
endfacet
facet normal 0.38268343236511104 0.9238795325112781 0.0
outer loop
vertex 142.17950959645833 165.62178772393983 0.0
vertex 141.33537625431714 165.97143920270605 10.000000000000004
vertex 142.17950959645833 165.62178772393983 10.000000000000004
endloop
endfacet
facet normal 0.46632137126854445 0.8846153846153844 0.0
outer loop
vertex 142.17950959645833 165.62178772393983 10.000000000000004
vertex 147.92950959645833 162.5906988106943 0.0
vertex 142.17950959645833 165.62178772393983 0.0
endloop
endfacet
facet normal 0.46632137126854445 0.8846153846153844 0.0
outer loop
vertex 147.92950959645833 162.5906988106943 0.0
vertex 142.17950959645833 165.62178772393983 10.000000000000004
vertex 147.92950959645833 162.5906988106943 5.000000000000002
endloop
endfacet
facet normal 0.46632137126854445 0.8846153846153844 0.0
outer loop
vertex 147.92950959645833 162.5906988106943 5.000000000000002
vertex 142.17950959645833 165.62178772393983 10.000000000000004
vertex 147.92950959645833 162.5906988106943 10.000000000000004
endloop
endfacet
facet normal -0.25881904510260634 -0.9659258262890454 0.0
outer loop
vertex 140.64783078029228 143.40548456113117 10.000000000000004
vertex 140.42950959645833 143.43422709025913 0.0
vertex 140.64783078029228 143.40548456113117 0.0
endloop
endfacet
facet normal 0.0 -1.0 0.0
outer loop
vertex 140.42950959645833 143.43422709025913 0.0
vertex 140.64783078029228 143.40548456113117 10.000000000000004
vertex 140.42950959645833 143.43422709025913 10.000000000000004
endloop
endfacet
facet normal 0.0 -1.0 0.0
outer loop
vertex 140.42950959645833 143.43422709025913 10.000000000000004
vertex 140.21118841262435 143.40548456113117 0.0
vertex 140.42950959645833 143.43422709025913 0.0
endloop
endfacet
facet normal 0.25881904510260634 -0.9659258262890454 0.0
outer loop
vertex 140.21118841262435 143.40548456113117 0.0
vertex 140.42950959645833 143.43422709025913 10.000000000000004
vertex 140.21118841262435 143.40548456113117 10.000000000000004
endloop
endfacet
facet normal 0.25881904510260634 -0.9659258262890454 0.0
outer loop
vertex 140.21118841262435 143.40548456113117 10.000000000000004
vertex 140.00774545667588 143.32121572960804 0.0
vertex 140.21118841262435 143.40548456113117 0.0
endloop
endfacet
facet normal 0.5000000000000895 -0.866025403784387 0.0
outer loop
vertex 140.00774545667588 143.32121572960804 0.0
vertex 140.21118841262435 143.40548456113117 10.000000000000004
vertex 140.00774545667588 143.32121572960804 10.000000000000004
endloop
endfacet
facet normal 0.5000000000000895 -0.866025403784387 0.0
outer loop
vertex 140.00774545667588 143.32121572960804 10.000000000000004
vertex 139.8330450298554 143.18716337729725 0.0
vertex 140.00774545667588 143.32121572960804 0.0
endloop
endfacet
facet normal 0.7071067811865209 -0.7071067811865743 0.0
outer loop
vertex 139.8330450298554 143.18716337729725 0.0
vertex 140.00774545667588 143.32121572960804 10.000000000000004
vertex 139.8330450298554 143.18716337729725 10.000000000000004
endloop
endfacet
facet normal 0.7071067811865209 -0.7071067811865743 0.0
outer loop
vertex 139.8330450298554 143.18716337729725 0.0
vertex 139.69899267754454 143.01246295047665 10.000000000000004
vertex 139.69899267754454 143.01246295047665 0.0
endloop
endfacet
facet normal 0.8660254037844236 -0.5000000000000263 0.0
outer loop
vertex 139.69899267754454 143.01246295047665 10.000000000000004
vertex 139.8330450298554 143.18716337729725 0.0
vertex 139.8330450298554 143.18716337729725 10.000000000000004
endloop
endfacet
facet normal 0.8660254037844236 -0.5000000000000263 0.0
outer loop
vertex 139.69899267754454 143.01246295047665 0.0
vertex 139.61472384602143 142.80901999452826 10.000000000000004
vertex 139.61472384602143 142.80901999452826 0.0
endloop
endfacet
facet normal 0.9659258262890644 -0.2588190451025354 0.0
outer loop
vertex 139.61472384602143 142.80901999452826 10.000000000000004
vertex 139.69899267754454 143.01246295047665 0.0
vertex 139.69899267754454 143.01246295047665 10.000000000000004
endloop
endfacet
facet normal 0.9659258262890644 -0.2588190451025354 0.0
outer loop
vertex 139.61472384602143 142.80901999452826 0.0
vertex 139.58598131689345 142.59069881069428 10.000000000000004
vertex 139.58598131689345 142.59069881069428 0.0
endloop
endfacet
facet normal 1.0 0.0 0.0
outer loop
vertex 139.58598131689345 142.59069881069428 10.000000000000004
vertex 139.61472384602143 142.80901999452826 0.0
vertex 139.61472384602143 142.80901999452826 10.000000000000004
endloop
endfacet
facet normal 1.0 0.0 0.0
outer loop
vertex 139.58598131689345 142.59069881069428 0.0
vertex 139.61472384602143 142.37237762686024 10.000000000000004
vertex 139.61472384602143 142.37237762686024 0.0
endloop
endfacet
facet normal 0.9659258262890644 0.2588190451025354 0.0
outer loop
vertex 139.61472384602143 142.37237762686024 10.000000000000004
vertex 139.58598131689345 142.59069881069428 0.0
vertex 139.58598131689345 142.59069881069428 10.000000000000004
endloop
endfacet
facet normal 0.9659258262890644 0.2588190451025354 0.0
outer loop
vertex 139.61472384602143 142.37237762686024 0.0
vertex 139.69899267754454 142.16893467091185 10.000000000000004
vertex 139.69899267754454 142.16893467091185 0.0
endloop
endfacet
facet normal 0.8660254037844236 0.5000000000000263 0.0
outer loop
vertex 139.69899267754454 142.16893467091185 10.000000000000004
vertex 139.61472384602143 142.37237762686024 0.0
vertex 139.61472384602143 142.37237762686024 10.000000000000004
endloop
endfacet
facet normal 0.8660254037844236 0.5000000000000263 0.0
outer loop
vertex 139.69899267754454 142.16893467091185 0.0
vertex 139.8330450298554 141.9942342440913 10.000000000000004
vertex 139.8330450298554 141.9942342440913 0.0
endloop
endfacet
facet normal 0.7071067811865209 0.7071067811865743 0.0
outer loop
vertex 139.8330450298554 141.9942342440913 10.000000000000004
vertex 139.69899267754454 142.16893467091185 0.0
vertex 139.69899267754454 142.16893467091185 10.000000000000004
endloop
endfacet
facet normal 0.7071067811865209 0.7071067811865743 0.0
outer loop
vertex 139.8330450298554 141.9942342440913 10.000000000000004
vertex 140.00774545667588 141.8601818917805 0.0
vertex 139.8330450298554 141.9942342440913 0.0
endloop
endfacet
facet normal 0.5000000000000895 0.866025403784387 0.0
outer loop
vertex 140.00774545667588 141.8601818917805 0.0
vertex 139.8330450298554 141.9942342440913 10.000000000000004
vertex 140.00774545667588 141.8601818917805 10.000000000000004
endloop
endfacet
facet normal 0.5000000000000895 0.866025403784387 0.0
outer loop
vertex 140.00774545667588 141.8601818917805 10.000000000000004
vertex 140.21118841262435 141.77591306025732 0.0
vertex 140.00774545667588 141.8601818917805 0.0
endloop
endfacet
facet normal 0.25881904510260634 0.9659258262890454 0.0
outer loop
vertex 140.21118841262435 141.77591306025732 0.0
vertex 140.00774545667588 141.8601818917805 10.000000000000004
vertex 140.21118841262435 141.77591306025732 10.000000000000004
endloop
endfacet
facet normal 0.25881904510260634 0.9659258262890454 0.0
outer loop
vertex 140.21118841262435 141.77591306025732 10.000000000000004
vertex 140.42950959645833 141.74717053112937 0.0
vertex 140.21118841262435 141.77591306025732 0.0
endloop
endfacet
facet normal 0.0 1.0 0.0
outer loop
vertex 140.42950959645833 141.74717053112937 0.0
vertex 140.21118841262435 141.77591306025732 10.000000000000004
vertex 140.42950959645833 141.74717053112937 10.000000000000004
endloop
endfacet
facet normal 0.0 1.0 0.0
outer loop
vertex 140.42950959645833 141.74717053112937 10.000000000000004
vertex 140.64783078029228 141.77591306025732 0.0
vertex 140.42950959645833 141.74717053112937 0.0
endloop
endfacet
facet normal -0.25881904510260634 0.9659258262890454 0.0
outer loop
vertex 140.64783078029228 141.77591306025732 0.0
vertex 140.42950959645833 141.74717053112937 10.000000000000004
vertex 140.64783078029228 141.77591306025732 10.000000000000004
endloop
endfacet
facet normal -0.25881904510260634 0.9659258262890454 0.0
outer loop
vertex 140.64783078029228 141.77591306025732 10.000000000000004
vertex 140.85127373624078 141.8601818917805 0.0
vertex 140.64783078029228 141.77591306025732 0.0
endloop
endfacet
facet normal -0.5000000000000895 0.866025403784387 0.0
outer loop
vertex 140.85127373624078 141.8601818917805 0.0
vertex 140.64783078029228 141.77591306025732 10.000000000000004
vertex 140.85127373624078 141.8601818917805 10.000000000000004
endloop
endfacet
facet normal -0.5000000000000895 0.866025403784387 0.0
outer loop
vertex 140.85127373624078 141.8601818917805 10.000000000000004
vertex 141.02597416306125 141.9942342440913 0.0
vertex 140.85127373624078 141.8601818917805 0.0
endloop
endfacet
facet normal -0.7071067811865209 0.7071067811865743 0.0
outer loop
vertex 141.02597416306125 141.9942342440913 0.0
vertex 140.85127373624078 141.8601818917805 10.000000000000004
vertex 141.02597416306125 141.9942342440913 10.000000000000004
endloop
endfacet
facet normal -0.8660254037844236 0.5000000000000263 0.0
outer loop
vertex 141.16002651537212 142.16893467091185 10.000000000000004
vertex 141.02597416306125 141.9942342440913 0.0
vertex 141.02597416306125 141.9942342440913 10.000000000000004
endloop
endfacet
facet normal -0.7071067811865209 0.7071067811865743 0.0
outer loop
vertex 141.02597416306125 141.9942342440913 0.0
vertex 141.16002651537212 142.16893467091185 10.000000000000004
vertex 141.16002651537212 142.16893467091185 0.0
endloop
endfacet
facet normal -0.965925826289061 0.2588190451025484 0.0
outer loop
vertex 141.24429534689523 142.37237762686024 10.000000000000004
vertex 141.16002651537212 142.16893467091185 0.0
vertex 141.16002651537212 142.16893467091185 10.000000000000004
endloop
endfacet
facet normal -0.8660254037844236 0.5000000000000263 0.0
outer loop
vertex 141.16002651537212 142.16893467091185 0.0
vertex 141.24429534689523 142.37237762686024 10.000000000000004
vertex 141.24429534689523 142.37237762686024 0.0
endloop
endfacet
facet normal -1.0 1.3366664843470374e-14 0.0
outer loop
vertex 141.2730378760232 142.59069881069422 10.000000000000004
vertex 141.24429534689523 142.37237762686024 0.0
vertex 141.24429534689523 142.37237762686024 10.000000000000004
endloop
endfacet
facet normal -0.965925826289061 0.2588190451025484 0.0
outer loop
vertex 141.24429534689523 142.37237762686024 0.0
vertex 141.2730378760232 142.59069881069422 10.000000000000004
vertex 141.2730378760232 142.59069881069422 0.0
endloop
endfacet
facet normal -0.9659258262890725 -0.2588190451025054 0.0
outer loop
vertex 141.24429534689523 142.80901999452826 10.000000000000004
vertex 141.2730378760232 142.59069881069422 0.0
vertex 141.2730378760232 142.59069881069422 10.000000000000004
endloop
endfacet
facet normal -1.0 1.3366664843470374e-14 0.0
outer loop
vertex 141.2730378760232 142.59069881069422 0.0
vertex 141.24429534689523 142.80901999452826 10.000000000000004
vertex 141.24429534689523 142.80901999452826 0.0
endloop
endfacet
facet normal -0.8660254037844283 -0.5000000000000182 0.0
outer loop
vertex 141.1600265153721 143.01246295047673 10.000000000000004
vertex 141.24429534689523 142.80901999452826 0.0
vertex 141.24429534689523 142.80901999452826 10.000000000000004
endloop
endfacet
facet normal -0.9659258262890725 -0.2588190451025054 0.0
outer loop
vertex 141.24429534689523 142.80901999452826 0.0
vertex 141.1600265153721 143.01246295047673 10.000000000000004
vertex 141.1600265153721 143.01246295047673 0.0
endloop
endfacet
facet normal -0.7071067811865053 -0.7071067811865898 0.0
outer loop
vertex 141.02597416306125 143.18716337729725 10.000000000000004
vertex 141.1600265153721 143.01246295047673 0.0
vertex 141.1600265153721 143.01246295047673 10.000000000000004
endloop
endfacet
facet normal -0.8660254037844283 -0.5000000000000182 0.0
outer loop
vertex 141.1600265153721 143.01246295047673 0.0
vertex 141.02597416306125 143.18716337729725 10.000000000000004
vertex 141.02597416306125 143.18716337729725 0.0
endloop
endfacet
facet normal -0.7071067811865053 -0.7071067811865898 0.0
outer loop
vertex 141.02597416306125 143.18716337729725 10.000000000000004
vertex 140.85127373624078 143.32121572960804 0.0
vertex 141.02597416306125 143.18716337729725 0.0
endloop
endfacet
facet normal -0.5000000000000895 -0.866025403784387 0.0
outer loop
vertex 140.85127373624078 143.32121572960804 0.0
vertex 141.02597416306125 143.18716337729725 10.000000000000004
vertex 140.85127373624078 143.32121572960804 10.000000000000004
endloop
endfacet
facet normal -0.5000000000000895 -0.866025403784387 0.0
outer loop
vertex 140.85127373624078 143.32121572960804 10.000000000000004
vertex 140.64783078029228 143.40548456113117 0.0
vertex 140.85127373624078 143.32121572960804 0.0
endloop
endfacet
facet normal -0.25881904510260634 -0.9659258262890454 0.0
outer loop
vertex 140.64783078029228 143.40548456113117 0.0
vertex 140.85127373624078 143.32121572960804 10.000000000000004
vertex 140.64783078029228 143.40548456113117 10.000000000000004
endloop
endfacet
facet normal 0.25881904510260634 0.9659258262890454 0.0
outer loop
vertex 140.21118841262435 161.77591306025735 10.000000000000004
vertex 140.42950959645833 161.7471705311294 0.0
vertex 140.21118841262435 161.77591306025735 0.0
endloop
endfacet
facet normal 0.0 1.0 0.0
outer loop
vertex 140.42950959645833 161.7471705311294 0.0
vertex 140.21118841262435 161.77591306025735 10.000000000000004
vertex 140.42950959645833 161.7471705311294 10.000000000000004
endloop
endfacet
facet normal 0.0 1.0 0.0
outer loop
vertex 140.42950959645833 161.7471705311294 10.000000000000004
vertex 140.64783078029228 161.77591306025735 0.0
vertex 140.42950959645833 161.7471705311294 0.0
endloop
endfacet
facet normal -0.25881904510260634 0.9659258262890454 0.0
outer loop
vertex 140.64783078029228 161.77591306025735 0.0
vertex 140.42950959645833 161.7471705311294 10.000000000000004
vertex 140.64783078029228 161.77591306025735 10.000000000000004
endloop
endfacet
facet normal -0.25881904510260634 0.9659258262890454 0.0
outer loop
vertex 140.64783078029228 161.77591306025735 10.000000000000004
vertex 140.85127373624078 161.8601818917805 0.0
vertex 140.64783078029228 161.77591306025735 0.0
endloop
endfacet
facet normal -0.5000000000000895 0.866025403784387 0.0
outer loop
vertex 140.85127373624078 161.8601818917805 0.0
vertex 140.64783078029228 161.77591306025735 10.000000000000004
vertex 140.85127373624078 161.8601818917805 10.000000000000004
endloop
endfacet
facet normal -0.5000000000000895 0.866025403784387 0.0
outer loop
vertex 140.85127373624078 161.8601818917805 10.000000000000004
vertex 141.02597416306125 161.99423424409127 0.0
vertex 140.85127373624078 161.8601818917805 0.0
endloop
endfacet
facet normal -0.7071067811865209 0.7071067811865743 0.0
outer loop
vertex 141.02597416306125 161.99423424409127 0.0
vertex 140.85127373624078 161.8601818917805 10.000000000000004
vertex 141.02597416306125 161.99423424409127 10.000000000000004
endloop
endfacet
facet normal -0.8660254037844236 0.5000000000000263 0.0
outer loop
vertex 141.16002651537212 162.16893467091188 10.000000000000004
vertex 141.02597416306125 161.99423424409127 0.0
vertex 141.02597416306125 161.99423424409127 10.000000000000004
endloop
endfacet
facet normal -0.7071067811865209 0.7071067811865743 0.0
outer loop
vertex 141.02597416306125 161.99423424409127 0.0
vertex 141.16002651537212 162.16893467091188 10.000000000000004
vertex 141.16002651537212 162.16893467091188 0.0
endloop
endfacet
facet normal -0.9659258262890644 0.2588190451025354 0.0
outer loop
vertex 141.24429534689523 162.37237762686027 10.000000000000004
vertex 141.16002651537212 162.16893467091188 0.0
vertex 141.16002651537212 162.16893467091188 10.000000000000004
endloop
endfacet
facet normal -0.8660254037844236 0.5000000000000263 0.0
outer loop
vertex 141.16002651537212 162.16893467091188 0.0
vertex 141.24429534689523 162.37237762686027 10.000000000000004
vertex 141.24429534689523 162.37237762686027 0.0
endloop
endfacet
facet normal -1.0 0.0 0.0
outer loop
vertex 141.2730378760232 162.5906988106943 10.000000000000004
vertex 141.24429534689523 162.37237762686027 0.0
vertex 141.24429534689523 162.37237762686027 10.000000000000004
endloop
endfacet
facet normal -0.9659258262890644 0.2588190451025354 0.0
outer loop
vertex 141.24429534689523 162.37237762686027 0.0
vertex 141.2730378760232 162.5906988106943 10.000000000000004
vertex 141.2730378760232 162.5906988106943 0.0
endloop
endfacet
facet normal -0.9659258262890644 -0.2588190451025354 0.0
outer loop
vertex 141.24429534689523 162.8090199945283 10.000000000000004
vertex 141.2730378760232 162.5906988106943 0.0
vertex 141.2730378760232 162.5906988106943 10.000000000000004
endloop
endfacet
facet normal -1.0 0.0 0.0
outer loop
vertex 141.2730378760232 162.5906988106943 0.0
vertex 141.24429534689523 162.8090199945283 10.000000000000004
vertex 141.24429534689523 162.8090199945283 0.0
endloop
endfacet
facet normal -0.8660254037844236 -0.5000000000000263 0.0
outer loop
vertex 141.16002651537212 163.0124629504767 10.000000000000004
vertex 141.24429534689523 162.8090199945283 0.0
vertex 141.24429534689523 162.8090199945283 10.000000000000004
endloop
endfacet
facet normal -0.9659258262890644 -0.2588190451025354 0.0
outer loop
vertex 141.24429534689523 162.8090199945283 0.0
vertex 141.16002651537212 163.0124629504767 10.000000000000004
vertex 141.16002651537212 163.0124629504767 0.0
endloop
endfacet
facet normal -0.7071067811865209 -0.7071067811865743 0.0
outer loop
vertex 141.02597416306125 163.18716337729722 10.000000000000004
vertex 141.16002651537212 163.0124629504767 0.0
vertex 141.16002651537212 163.0124629504767 10.000000000000004
endloop
endfacet
facet normal -0.8660254037844236 -0.5000000000000263 0.0
outer loop
vertex 141.16002651537212 163.0124629504767 0.0
vertex 141.02597416306125 163.18716337729722 10.000000000000004
vertex 141.02597416306125 163.18716337729722 0.0
endloop
endfacet
facet normal -0.7071067811865209 -0.7071067811865743 0.0
outer loop
vertex 141.02597416306125 163.18716337729722 10.000000000000004
vertex 140.85127373624078 163.32121572960799 0.0
vertex 141.02597416306125 163.18716337729722 0.0
endloop
endfacet
facet normal -0.5000000000000895 -0.866025403784387 0.0
outer loop
vertex 140.85127373624078 163.32121572960799 0.0
vertex 141.02597416306125 163.18716337729722 10.000000000000004
vertex 140.85127373624078 163.32121572960799 10.000000000000004
endloop
endfacet
facet normal -0.5000000000000895 -0.866025403784387 0.0
outer loop
vertex 140.85127373624078 163.32121572960799 10.000000000000004
vertex 140.64783078029228 163.40548456113123 0.0
vertex 140.85127373624078 163.32121572960799 0.0
endloop
endfacet
facet normal -0.25881904510260634 -0.9659258262890454 0.0
outer loop
vertex 140.64783078029228 163.40548456113123 0.0
vertex 140.85127373624078 163.32121572960799 10.000000000000004
vertex 140.64783078029228 163.40548456113123 10.000000000000004
endloop
endfacet
facet normal -0.25881904510260634 -0.9659258262890454 0.0
outer loop
vertex 140.64783078029228 163.40548456113123 10.000000000000004
vertex 140.42950959645833 163.43422709025918 0.0
vertex 140.64783078029228 163.40548456113123 0.0
endloop
endfacet
facet normal 0.0 -1.0 0.0
outer loop
vertex 140.42950959645833 163.43422709025918 0.0
vertex 140.64783078029228 163.40548456113123 10.000000000000004
vertex 140.42950959645833 163.43422709025918 10.000000000000004
endloop
endfacet
facet normal 0.0 -1.0 0.0
outer loop
vertex 140.42950959645833 163.43422709025918 10.000000000000004
vertex 140.21118841262435 163.40548456113123 0.0
vertex 140.42950959645833 163.43422709025918 0.0
endloop
endfacet
facet normal 0.25881904510260634 -0.9659258262890454 0.0
outer loop
vertex 140.21118841262435 163.40548456113123 0.0
vertex 140.42950959645833 163.43422709025918 10.000000000000004
vertex 140.21118841262435 163.40548456113123 10.000000000000004
endloop
endfacet
facet normal 0.25881904510260634 -0.9659258262890454 0.0
outer loop
vertex 140.21118841262435 163.40548456113123 10.000000000000004
vertex 140.00774545667588 163.32121572960799 0.0
vertex 140.21118841262435 163.40548456113123 0.0
endloop
endfacet
facet normal 0.5000000000000895 -0.866025403784387 0.0
outer loop
vertex 140.00774545667588 163.32121572960799 0.0
vertex 140.21118841262435 163.40548456113123 10.000000000000004
vertex 140.00774545667588 163.32121572960799 10.000000000000004
endloop
endfacet
facet normal 0.5000000000000895 -0.866025403784387 0.0
outer loop
vertex 140.00774545667588 163.32121572960799 10.000000000000004
vertex 139.8330450298554 163.18716337729722 0.0
vertex 140.00774545667588 163.32121572960799 0.0
endloop
endfacet
facet normal 0.7071067811865209 -0.7071067811865743 0.0
outer loop
vertex 139.8330450298554 163.18716337729722 0.0
vertex 140.00774545667588 163.32121572960799 10.000000000000004
vertex 139.8330450298554 163.18716337729722 10.000000000000004
endloop
endfacet
facet normal 0.7071067811865209 -0.7071067811865743 0.0
outer loop
vertex 139.8330450298554 163.18716337729722 0.0
vertex 139.69899267754454 163.0124629504767 10.000000000000004
vertex 139.69899267754454 163.0124629504767 0.0
endloop
endfacet
facet normal 0.8660254037844236 -0.5000000000000263 0.0
outer loop
vertex 139.69899267754454 163.0124629504767 10.000000000000004
vertex 139.8330450298554 163.18716337729722 0.0
vertex 139.8330450298554 163.18716337729722 10.000000000000004
endloop
endfacet
facet normal 0.8660254037844236 -0.5000000000000263 0.0
outer loop
vertex 139.69899267754454 163.0124629504767 0.0
vertex 139.61472384602143 162.8090199945283 10.000000000000004
vertex 139.61472384602143 162.8090199945283 0.0
endloop
endfacet
facet normal 0.965925826289061 -0.2588190451025484 0.0
outer loop
vertex 139.61472384602143 162.8090199945283 10.000000000000004
vertex 139.69899267754454 163.0124629504767 0.0
vertex 139.69899267754454 163.0124629504767 10.000000000000004
endloop
endfacet
facet normal 0.965925826289061 -0.2588190451025484 0.0
outer loop
vertex 139.61472384602143 162.8090199945283 0.0
vertex 139.58598131689345 162.5906988106943 10.000000000000004
vertex 139.58598131689345 162.5906988106943 0.0
endloop
endfacet
facet normal 1.0 -1.3366664843470374e-14 0.0
outer loop
vertex 139.58598131689345 162.5906988106943 10.000000000000004
vertex 139.61472384602143 162.8090199945283 0.0
vertex 139.61472384602143 162.8090199945283 10.000000000000004
endloop
endfacet
facet normal 1.0 -1.3366664843470374e-14 0.0
outer loop
vertex 139.58598131689345 162.5906988106943 0.0
vertex 139.61472384602143 162.37237762686027 10.000000000000004
vertex 139.61472384602143 162.37237762686027 0.0
endloop
endfacet
facet normal 0.9659258262890725 0.2588190451025054 0.0
outer loop
vertex 139.61472384602143 162.37237762686027 10.000000000000004
vertex 139.58598131689345 162.5906988106943 0.0
vertex 139.58598131689345 162.5906988106943 10.000000000000004
endloop
endfacet
facet normal 0.9659258262890725 0.2588190451025054 0.0
outer loop
vertex 139.61472384602143 162.37237762686027 0.0
vertex 139.69899267754457 162.1689346709118 10.000000000000004
vertex 139.69899267754457 162.1689346709118 0.0
endloop
endfacet
facet normal 0.8660254037844283 0.5000000000000182 0.0
outer loop
vertex 139.69899267754457 162.1689346709118 10.000000000000004
vertex 139.61472384602143 162.37237762686027 0.0
vertex 139.61472384602143 162.37237762686027 10.000000000000004
endloop
endfacet
facet normal 0.8660254037844283 0.5000000000000182 0.0
outer loop
vertex 139.69899267754457 162.1689346709118 0.0
vertex 139.8330450298554 161.99423424409127 10.000000000000004
vertex 139.8330450298554 161.99423424409127 0.0
endloop
endfacet
facet normal 0.7071067811865053 0.7071067811865898 0.0
outer loop
vertex 139.8330450298554 161.99423424409127 10.000000000000004
vertex 139.69899267754457 162.1689346709118 0.0
vertex 139.69899267754457 162.1689346709118 10.000000000000004
endloop
endfacet
facet normal 0.7071067811865053 0.7071067811865898 0.0
outer loop
vertex 139.8330450298554 161.99423424409127 10.000000000000004
vertex 140.00774545667588 161.8601818917805 0.0
vertex 139.8330450298554 161.99423424409127 0.0
endloop
endfacet
facet normal 0.5000000000000895 0.866025403784387 0.0
outer loop
vertex 140.00774545667588 161.8601818917805 0.0
vertex 139.8330450298554 161.99423424409127 10.000000000000004
vertex 140.00774545667588 161.8601818917805 10.000000000000004
endloop
endfacet
facet normal 0.5000000000000895 0.866025403784387 0.0
outer loop
vertex 140.00774545667588 161.8601818917805 10.000000000000004
vertex 140.21118841262435 161.77591306025735 0.0
vertex 140.00774545667588 161.8601818917805 0.0
endloop
endfacet
facet normal 0.25881904510260634 0.9659258262890454 0.0
outer loop
vertex 140.21118841262435 161.77591306025735 0.0
vertex 140.00774545667588 161.8601818917805 10.000000000000004
vertex 140.21118841262435 161.77591306025735 10.000000000000004
endloop
endfacet
facet normal 1.0 0.0 0.0
outer loop
vertex 160.92950959645833 162.5906988106943 0.0
vertex 160.92950959645833 140.09069881069425 5.000000000000002
vertex 160.92950959645833 140.09069881069425 0.0
endloop
endfacet
facet normal 1.0 0.0 0.0
outer loop
vertex 160.92950959645833 140.09069881069425 5.000000000000002
vertex 160.92950959645833 162.5906988106943 0.0
vertex 160.92950959645833 162.5906988106943 5.000000000000002
endloop
endfacet
facet normal 0.0 1.0 0.0
outer loop
vertex 147.92950959645833 162.5906988106943 5.000000000000002
vertex 160.92950959645833 162.5906988106943 0.0
vertex 147.92950959645833 162.5906988106943 0.0
endloop
endfacet
facet normal 0.0 1.0 0.0
outer loop
vertex 160.92950959645833 162.5906988106943 0.0
vertex 147.92950959645833 162.5906988106943 5.000000000000002
vertex 160.92950959645833 162.5906988106943 5.000000000000002
endloop
endfacet
facet normal 0.0 -1.0 0.0
outer loop
vertex 160.92950959645833 140.09069881069425 5.000000000000002
vertex 147.92950959645833 140.09069881069425 0.0
vertex 160.92950959645833 140.09069881069425 0.0
endloop
endfacet
facet normal 0.0 -1.0 0.0
outer loop
vertex 147.92950959645833 140.09069881069425 0.0
vertex 160.92950959645833 140.09069881069425 5.000000000000002
vertex 147.92950959645833 140.09069881069425 5.000000000000002
endloop
endfacet
facet normal 0.0 -1.0 0.0
outer loop
vertex 147.92950959645833 140.09069881069425 5.000000000000002
vertex 160.92950959645833 140.09069881069425 5.000000000000002
vertex 147.92950959645833 140.09069881069425 10.000000000000004
endloop
endfacet
facet normal 0.0 0.0 1.0
outer loop
vertex 137.04876920444656 141.68483215283544 10.000000000000004
vertex 136.9295095964583 162.5906988106943 10.000000000000004
vertex 136.9295095964583 142.59069881069428 10.000000000000004
endloop
endfacet
facet normal 0.0 0.0 1.0
outer loop
vertex 136.9295095964583 162.5906988106943 10.000000000000004
vertex 137.04876920444656 141.68483215283544 10.000000000000004
vertex 137.04876920444656 163.4965654685531 10.000000000000004
endloop
endfacet
facet normal 0.0 0.0 1.0
outer loop
vertex 137.04876920444656 163.4965654685531 10.000000000000004
vertex 137.04876920444656 141.68483215283544 10.000000000000004
vertex 137.39842068321278 140.84069881069425 10.000000000000004
endloop
endfacet
facet normal 0.0 0.0 1.0
outer loop
vertex 137.04876920444656 163.4965654685531 10.000000000000004
vertex 137.39842068321278 140.84069881069425 10.000000000000004
vertex 137.39842068321278 164.34069881069425 10.000000000000004
endloop
endfacet
facet normal 0.0 0.0 1.0
outer loop
vertex 137.39842068321278 164.34069881069425 10.000000000000004
vertex 137.39842068321278 140.84069881069425 10.000000000000004
vertex 137.9546358623054 140.1158250765413 10.000000000000004
endloop
endfacet
facet normal 0.0 0.0 1.0
outer loop
vertex 137.39842068321278 164.34069881069425 10.000000000000004
vertex 137.9546358623054 140.1158250765413 10.000000000000004
vertex 137.9546358623054 165.06557254484719 10.000000000000004
endloop
endfacet
facet normal 0.0 0.0 1.0
outer loop
vertex 137.9546358623054 165.06557254484719 10.000000000000004
vertex 137.9546358623054 140.1158250765413 10.000000000000004
vertex 138.67950959645833 139.55960989744872 10.000000000000004
endloop
endfacet
facet normal 0.0 0.0 1.0
outer loop
vertex 137.9546358623054 165.06557254484719 10.000000000000004
vertex 138.67950959645833 139.55960989744872 10.000000000000004
vertex 138.67950959645833 165.62178772393983 10.000000000000004
endloop
endfacet
facet normal 0.0 0.0 1.0
outer loop
vertex 138.67950959645833 165.62178772393983 10.000000000000004
vertex 138.67950959645833 139.55960989744872 10.000000000000004
vertex 139.5236429385995 139.2099584186825 10.000000000000004
endloop
endfacet
facet normal 0.0 0.0 1.0
outer loop
vertex 138.67950959645833 165.62178772393983 10.000000000000004
vertex 139.5236429385995 139.2099584186825 10.000000000000004
vertex 139.5236429385995 165.97143920270605 10.000000000000004
endloop
endfacet
facet normal 0.0 0.0 1.0
outer loop
vertex 139.5236429385995 165.97143920270605 10.000000000000004
vertex 139.5236429385995 139.2099584186825 10.000000000000004
vertex 139.58598131689345 142.59069881069428 10.000000000000004
endloop
endfacet
facet normal 0.0 0.0 1.0
outer loop
vertex 139.58598131689345 142.59069881069428 10.000000000000004
vertex 139.5236429385995 139.2099584186825 10.000000000000004
vertex 139.61472384602143 142.37237762686024 10.000000000000004
endloop
endfacet
facet normal 0.0 0.0 1.0
outer loop
vertex 139.61472384602143 142.37237762686024 10.000000000000004
vertex 139.5236429385995 139.2099584186825 10.000000000000004
vertex 140.42950959645833 139.09069881069425 10.000000000000004
endloop
endfacet
facet normal 0.0 0.0 1.0
outer loop
vertex 139.61472384602143 142.37237762686024 10.000000000000004
vertex 140.42950959645833 139.09069881069425 10.000000000000004
vertex 139.69899267754454 142.16893467091185 10.000000000000004
endloop
endfacet
facet normal 0.0 0.0 1.0
outer loop
vertex 139.69899267754454 142.16893467091185 10.000000000000004
vertex 140.42950959645833 139.09069881069425 10.000000000000004
vertex 139.8330450298554 141.9942342440913 10.000000000000004
endloop
endfacet
facet normal 0.0 0.0 1.0
outer loop
vertex 139.8330450298554 141.9942342440913 10.000000000000004
vertex 140.42950959645833 139.09069881069425 10.000000000000004
vertex 140.00774545667588 141.8601818917805 10.000000000000004
endloop
endfacet
facet normal 0.0 0.0 1.0
outer loop
vertex 140.00774545667588 141.8601818917805 10.000000000000004
vertex 140.42950959645833 139.09069881069425 10.000000000000004
vertex 140.21118841262435 141.77591306025732 10.000000000000004
endloop
endfacet
facet normal 0.0 0.0 1.0
outer loop
vertex 140.21118841262435 141.77591306025732 10.000000000000004
vertex 140.42950959645833 139.09069881069425 10.000000000000004
vertex 140.42950959645833 141.74717053112937 10.000000000000004
endloop
endfacet
facet normal 0.0 0.0 1.0
outer loop
vertex 140.42950959645833 141.74717053112937 10.000000000000004
vertex 140.42950959645833 139.09069881069425 10.000000000000004
vertex 146.92950959645833 139.09069881069425 10.000000000000004
endloop
endfacet
facet normal 0.0 0.0 1.0
outer loop
vertex 140.42950959645833 141.74717053112937 10.000000000000004
vertex 146.92950959645833 139.09069881069425 10.000000000000004
vertex 140.64783078029228 141.77591306025732 10.000000000000004
endloop
endfacet
facet normal 0.0 0.0 1.0
outer loop
vertex 140.64783078029228 141.77591306025732 10.000000000000004
vertex 146.92950959645833 139.09069881069425 10.000000000000004
vertex 140.85127373624078 141.8601818917805 10.000000000000004
endloop
endfacet
facet normal 0.0 0.0 1.0
outer loop
vertex 140.85127373624078 141.8601818917805 10.000000000000004
vertex 146.92950959645833 139.09069881069425 10.000000000000004
vertex 141.02597416306125 141.9942342440913 10.000000000000004
endloop
endfacet
facet normal 0.0 0.0 1.0
outer loop
vertex 141.02597416306125 141.9942342440913 10.000000000000004
vertex 146.92950959645833 139.09069881069425 10.000000000000004
vertex 141.16002651537212 142.16893467091185 10.000000000000004
endloop
endfacet
facet normal 0.0 0.0 1.0
outer loop
vertex 141.16002651537212 142.16893467091185 10.000000000000004
vertex 146.92950959645833 139.09069881069425 10.000000000000004
vertex 141.24429534689523 142.37237762686024 10.000000000000004
endloop
endfacet
facet normal 0.0 0.0 1.0
outer loop
vertex 141.24429534689523 142.37237762686024 10.000000000000004
vertex 146.92950959645833 139.09069881069425 10.000000000000004
vertex 141.2730378760232 142.59069881069422 10.000000000000004
endloop
endfacet
facet normal 0.0 0.0 1.0
outer loop
vertex 141.2730378760232 142.59069881069422 10.000000000000004
vertex 146.92950959645833 139.09069881069425 10.000000000000004
vertex 141.2730378760232 162.5906988106943 10.000000000000004
endloop
endfacet
facet normal 0.0 0.0 1.0
outer loop
vertex 141.2730378760232 162.5906988106943 10.000000000000004
vertex 146.92950959645833 139.09069881069425 10.000000000000004
vertex 141.33537625431714 165.97143920270605 10.000000000000004
endloop
endfacet
facet normal 0.0 0.0 1.0
outer loop
vertex 141.33537625431714 165.97143920270605 10.000000000000004
vertex 146.92950959645833 139.09069881069425 10.000000000000004
vertex 142.17950959645833 165.62178772393983 10.000000000000004
endloop
endfacet
facet normal 0.0 0.0 1.0
outer loop
vertex 142.17950959645833 165.62178772393983 10.000000000000004
vertex 146.92950959645833 139.09069881069425 10.000000000000004
vertex 147.92950959645833 162.5906988106943 10.000000000000004
endloop
endfacet
facet normal 0.0 0.0 1.0
outer loop
vertex 147.92950959645833 162.5906988106943 10.000000000000004
vertex 146.92950959645833 139.09069881069425 10.000000000000004
vertex 147.18832864156084 139.12477298440515 10.000000000000004
endloop
endfacet
facet normal 0.0 0.0 1.0
outer loop
vertex 147.92950959645833 162.5906988106943 10.000000000000004
vertex 147.18832864156084 139.12477298440515 10.000000000000004
vertex 147.31219302882343 139.16681927818294 10.000000000000004
endloop
endfacet
facet normal 0.0 0.0 1.0
outer loop
vertex 147.92950959645833 162.5906988106943 10.000000000000004
vertex 147.31219302882343 139.16681927818294 10.000000000000004
vertex 147.42950959645833 139.2246734069098 10.000000000000004
endloop
endfacet
facet normal 0.0 0.0 1.0
outer loop
vertex 147.92950959645833 162.5906988106943 10.000000000000004
vertex 147.42950959645833 139.2246734069098 10.000000000000004
vertex 147.53827102546705 139.297345470403 10.000000000000004
endloop
endfacet
facet normal 0.0 0.0 1.0
outer loop
vertex 147.92950959645833 162.5906988106943 10.000000000000004
vertex 147.53827102546705 139.297345470403 10.000000000000004
vertex 147.63661637764488 139.3835920295077 10.000000000000004
endloop
endfacet
facet normal 0.0 0.0 1.0
outer loop
vertex 147.92950959645833 162.5906988106943 10.000000000000004
vertex 147.63661637764488 139.3835920295077 10.000000000000004
vertex 147.72286293674958 139.48193738168555 10.000000000000004
endloop
endfacet
facet normal 0.0 0.0 1.0
outer loop
vertex 147.92950959645833 162.5906988106943 10.000000000000004
vertex 147.72286293674958 139.48193738168555 10.000000000000004
vertex 147.79553500024278 139.59069881069428 10.000000000000004
endloop
endfacet
facet normal 0.0 0.0 1.0
outer loop
vertex 147.92950959645833 162.5906988106943 10.000000000000004
vertex 147.79553500024278 139.59069881069428 10.000000000000004
vertex 147.8533891289696 139.70801537832918 10.000000000000004
endloop
endfacet
facet normal 0.0 0.0 1.0
outer loop
vertex 147.92950959645833 162.5906988106943 10.000000000000004
vertex 147.8533891289696 139.70801537832918 10.000000000000004
vertex 147.8954354227474 139.8318797655917 10.000000000000004
endloop
endfacet
facet normal 0.0 0.0 1.0
outer loop
vertex 147.92950959645833 162.5906988106943 10.000000000000004
vertex 147.8954354227474 139.8318797655917 10.000000000000004
vertex 147.92950959645833 140.09069881069425 10.000000000000004
endloop
endfacet
facet normal 0.0 0.0 1.0
outer loop
vertex 139.5236429385995 165.97143920270605 10.000000000000004
vertex 139.61472384602143 162.8090199945283 10.000000000000004
vertex 140.42950959645833 166.0906988106943 10.000000000000004
endloop
endfacet
facet normal 0.0 0.0 1.0
outer loop
vertex 139.61472384602143 162.8090199945283 10.000000000000004
vertex 139.5236429385995 165.97143920270605 10.000000000000004
vertex 139.58598131689345 162.5906988106943 10.000000000000004
endloop
endfacet
facet normal 0.0 0.0 1.0
outer loop
vertex 139.58598131689345 162.5906988106943 10.000000000000004
vertex 139.5236429385995 165.97143920270605 10.000000000000004
vertex 139.58598131689345 142.59069881069428 10.000000000000004
endloop
endfacet
facet normal 0.0 0.0 1.0
outer loop
vertex 140.42950959645833 166.0906988106943 10.000000000000004
vertex 139.61472384602143 162.8090199945283 10.000000000000004
vertex 139.69899267754454 163.0124629504767 10.000000000000004
endloop
endfacet
facet normal 0.0 0.0 1.0
outer loop
vertex 140.42950959645833 166.0906988106943 10.000000000000004
vertex 139.69899267754454 163.0124629504767 10.000000000000004
vertex 139.8330450298554 163.18716337729722 10.000000000000004
endloop
endfacet
facet normal 0.0 0.0 1.0
outer loop
vertex 140.42950959645833 166.0906988106943 10.000000000000004
vertex 139.8330450298554 163.18716337729722 10.000000000000004
vertex 140.00774545667588 163.32121572960799 10.000000000000004
endloop
endfacet
facet normal 0.0 0.0 1.0
outer loop
vertex 140.42950959645833 166.0906988106943 10.000000000000004
vertex 140.00774545667588 163.32121572960799 10.000000000000004
vertex 140.21118841262435 163.40548456113123 10.000000000000004
endloop
endfacet
facet normal 0.0 0.0 1.0
outer loop
vertex 140.42950959645833 166.0906988106943 10.000000000000004
vertex 140.21118841262435 163.40548456113123 10.000000000000004
vertex 140.42950959645833 163.43422709025918 10.000000000000004
endloop
endfacet
facet normal 0.0 0.0 1.0
outer loop
vertex 140.42950959645833 166.0906988106943 10.000000000000004
vertex 140.42950959645833 163.43422709025918 10.000000000000004
vertex 140.64783078029228 163.40548456113123 10.000000000000004
endloop
endfacet
facet normal 0.0 0.0 1.0
outer loop
vertex 140.42950959645833 166.0906988106943 10.000000000000004
vertex 140.64783078029228 163.40548456113123 10.000000000000004
vertex 141.33537625431714 165.97143920270605 10.000000000000004
endloop
endfacet
facet normal 0.0 0.0 1.0
outer loop
vertex 141.33537625431714 165.97143920270605 10.000000000000004
vertex 140.64783078029228 163.40548456113123 10.000000000000004
vertex 140.85127373624078 163.32121572960799 10.000000000000004
endloop
endfacet
facet normal 0.0 0.0 1.0
outer loop
vertex 141.33537625431714 165.97143920270605 10.000000000000004
vertex 140.85127373624078 163.32121572960799 10.000000000000004
vertex 141.02597416306125 163.18716337729722 10.000000000000004
endloop
endfacet
facet normal 0.0 0.0 1.0
outer loop
vertex 141.33537625431714 165.97143920270605 10.000000000000004
vertex 141.02597416306125 163.18716337729722 10.000000000000004
vertex 141.16002651537212 163.0124629504767 10.000000000000004
endloop
endfacet
facet normal 0.0 0.0 1.0
outer loop
vertex 141.33537625431714 165.97143920270605 10.000000000000004
vertex 141.16002651537212 163.0124629504767 10.000000000000004
vertex 141.24429534689523 162.8090199945283 10.000000000000004
endloop
endfacet
facet normal 0.0 0.0 1.0
outer loop
vertex 141.33537625431714 165.97143920270605 10.000000000000004
vertex 141.24429534689523 162.8090199945283 10.000000000000004
vertex 141.2730378760232 162.5906988106943 10.000000000000004
endloop
endfacet
facet normal 0.0 0.0 1.0
outer loop
vertex 139.61472384602143 142.80901999452826 10.000000000000004
vertex 139.58598131689345 162.5906988106943 10.000000000000004
vertex 139.58598131689345 142.59069881069428 10.000000000000004
endloop
endfacet
facet normal 0.0 0.0 1.0
outer loop
vertex 139.58598131689345 162.5906988106943 10.000000000000004
vertex 139.61472384602143 142.80901999452826 10.000000000000004
vertex 139.61472384602143 162.37237762686027 10.000000000000004
endloop
endfacet
facet normal 0.0 0.0 1.0
outer loop
vertex 139.61472384602143 162.37237762686027 10.000000000000004
vertex 139.61472384602143 142.80901999452826 10.000000000000004
vertex 139.69899267754454 143.01246295047665 10.000000000000004
endloop
endfacet
facet normal 0.0 0.0 1.0
outer loop
vertex 139.61472384602143 162.37237762686027 10.000000000000004
vertex 139.69899267754454 143.01246295047665 10.000000000000004
vertex 139.69899267754457 162.1689346709118 10.000000000000004
endloop
endfacet
facet normal 0.0 0.0 1.0
outer loop
vertex 139.69899267754457 162.1689346709118 10.000000000000004
vertex 139.69899267754454 143.01246295047665 10.000000000000004
vertex 139.8330450298554 143.18716337729725 10.000000000000004
endloop
endfacet
facet normal 0.0 0.0 1.0
outer loop
vertex 139.69899267754457 162.1689346709118 10.000000000000004
vertex 139.8330450298554 143.18716337729725 10.000000000000004
vertex 139.8330450298554 161.99423424409127 10.000000000000004
endloop
endfacet
facet normal 0.0 0.0 1.0
outer loop
vertex 139.8330450298554 161.99423424409127 10.000000000000004
vertex 139.8330450298554 143.18716337729725 10.000000000000004
vertex 140.00774545667588 143.32121572960804 10.000000000000004
endloop
endfacet
facet normal 0.0 0.0 1.0
outer loop
vertex 139.8330450298554 161.99423424409127 10.000000000000004
vertex 140.00774545667588 143.32121572960804 10.000000000000004
vertex 140.00774545667588 161.8601818917805 10.000000000000004
endloop
endfacet
facet normal 0.0 0.0 1.0
outer loop
vertex 140.00774545667588 161.8601818917805 10.000000000000004
vertex 140.00774545667588 143.32121572960804 10.000000000000004
vertex 140.21118841262435 143.40548456113117 10.000000000000004
endloop
endfacet
facet normal 0.0 0.0 1.0
outer loop
vertex 140.00774545667588 161.8601818917805 10.000000000000004
vertex 140.21118841262435 143.40548456113117 10.000000000000004
vertex 140.21118841262435 161.77591306025735 10.000000000000004
endloop
endfacet
facet normal 0.0 0.0 1.0
outer loop
vertex 140.21118841262435 161.77591306025735 10.000000000000004
vertex 140.21118841262435 143.40548456113117 10.000000000000004
vertex 140.42950959645833 143.43422709025913 10.000000000000004
endloop
endfacet
facet normal 0.0 0.0 1.0
outer loop
vertex 140.21118841262435 161.77591306025735 10.000000000000004
vertex 140.42950959645833 143.43422709025913 10.000000000000004
vertex 140.42950959645833 161.7471705311294 10.000000000000004
endloop
endfacet
facet normal 0.0 0.0 1.0
outer loop
vertex 140.42950959645833 161.7471705311294 10.000000000000004
vertex 140.42950959645833 143.43422709025913 10.000000000000004
vertex 140.64783078029228 143.40548456113117 10.000000000000004
endloop
endfacet
facet normal 0.0 0.0 1.0
outer loop
vertex 140.42950959645833 161.7471705311294 10.000000000000004
vertex 140.64783078029228 143.40548456113117 10.000000000000004
vertex 140.64783078029228 161.77591306025735 10.000000000000004
endloop
endfacet
facet normal 0.0 0.0 1.0
outer loop
vertex 140.64783078029228 161.77591306025735 10.000000000000004
vertex 140.64783078029228 143.40548456113117 10.000000000000004
vertex 140.85127373624078 143.32121572960804 10.000000000000004
endloop
endfacet
facet normal 0.0 0.0 1.0
outer loop
vertex 140.64783078029228 161.77591306025735 10.000000000000004
vertex 140.85127373624078 143.32121572960804 10.000000000000004
vertex 140.85127373624078 161.8601818917805 10.000000000000004
endloop
endfacet
facet normal 0.0 0.0 1.0
outer loop
vertex 140.85127373624078 161.8601818917805 10.000000000000004
vertex 140.85127373624078 143.32121572960804 10.000000000000004
vertex 141.02597416306125 143.18716337729725 10.000000000000004
endloop
endfacet
facet normal 0.0 0.0 1.0
outer loop
vertex 140.85127373624078 161.8601818917805 10.000000000000004
vertex 141.02597416306125 143.18716337729725 10.000000000000004
vertex 141.02597416306125 161.99423424409127 10.000000000000004
endloop
endfacet
facet normal 0.0 0.0 1.0
outer loop
vertex 141.02597416306125 161.99423424409127 10.000000000000004
vertex 141.02597416306125 143.18716337729725 10.000000000000004
vertex 141.1600265153721 143.01246295047673 10.000000000000004
endloop
endfacet
facet normal 0.0 0.0 1.0
outer loop
vertex 141.02597416306125 161.99423424409127 10.000000000000004
vertex 141.1600265153721 143.01246295047673 10.000000000000004
vertex 141.16002651537212 162.16893467091188 10.000000000000004
endloop
endfacet
facet normal 0.0 0.0 1.0
outer loop
vertex 141.16002651537212 162.16893467091188 10.000000000000004
vertex 141.1600265153721 143.01246295047673 10.000000000000004
vertex 141.24429534689523 142.80901999452826 10.000000000000004
endloop
endfacet
facet normal 0.0 0.0 1.0
outer loop
vertex 141.16002651537212 162.16893467091188 10.000000000000004
vertex 141.24429534689523 142.80901999452826 10.000000000000004
vertex 141.24429534689523 162.37237762686027 10.000000000000004
endloop
endfacet
facet normal 0.0 0.0 1.0
outer loop
vertex 141.24429534689523 162.37237762686027 10.000000000000004
vertex 141.24429534689523 142.80901999452826 10.000000000000004
vertex 141.2730378760232 142.59069881069422 10.000000000000004
endloop
endfacet
facet normal 0.0 0.0 1.0
outer loop
vertex 141.24429534689523 162.37237762686027 10.000000000000004
vertex 141.2730378760232 142.59069881069422 10.000000000000004
vertex 141.2730378760232 162.5906988106943 10.000000000000004
endloop
endfacet
facet normal 1.0 0.0 0.0
outer loop
vertex 147.92950959645833 162.5906988106943 5.000000000000002
vertex 147.92950959645833 140.09069881069425 10.000000000000004
vertex 147.92950959645833 140.09069881069425 5.000000000000002
endloop
endfacet
facet normal 1.0 0.0 0.0
outer loop
vertex 147.92950959645833 140.09069881069425 10.000000000000004
vertex 147.92950959645833 162.5906988106943 5.000000000000002
vertex 147.92950959645833 162.5906988106943 10.000000000000004
endloop
endfacet
facet normal 0.0 1.0 0.0
outer loop
vertex 147.92950959645833 162.5906988106943 10.000000000000004
vertex 160.92950959645833 162.5906988106943 5.000000000000002
vertex 147.92950959645833 162.5906988106943 5.000000000000002
endloop
endfacet
facet normal 0.35897907930886924 0.0 0.9333456062030595
outer loop
vertex 160.92950959645833 140.09069881069425 5.000000000000002
vertex 147.92950959645833 162.5906988106943 10.000000000000004
vertex 147.92950959645833 140.09069881069425 10.000000000000004
endloop
endfacet
facet normal 0.35897907930886924 0.0 0.9333456062030595
outer loop
vertex 147.92950959645833 162.5906988106943 10.000000000000004
vertex 160.92950959645833 140.09069881069425 5.000000000000002
vertex 160.92950959645833 162.5906988106943 5.000000000000002
endloop
endfacet
endsolid Varios_SBOX_2
